<svg width="24" height="24" viewBox="0 0 24 24" fill="none" xmlns="http://www.w3.org/2000/svg">
  <!-- Chat bubble -->
  <path d="M3 7C3 5.34315 4.34315 4 6 4H18C19.6569 4 21 5.34315 21 7V14C21 15.6569 19.6569 17 18 17H11L6.5 20.5C6.22386 20.7761 5.75 20.5791 5.75 20.2V17C4.23122 17 3 15.7688 3 14.25V7Z" stroke="currentColor" stroke-width="1.5" stroke-linejoin="round" fill="none"/>
  
  <!-- Robot head -->
  <rect x="9" y="8" width="6" height="5" rx="1" stroke="currentColor" stroke-width="1.2" fill="none"/>
  
  <!-- Robot antenna -->
  <line x1="12" y1="8" x2="12" y2="6.5" stroke="currentColor" stroke-width="1.2"/>
  <circle cx="12" cy="6" r="0.8" fill="currentColor"/>
  
  <!-- Robot eyes -->
  <circle cx="10.5" cy="10" r="0.6" fill="currentColor"/>
  <circle cx="13.5" cy="10" r="0.6" fill="currentColor"/>
  
  <!-- Robot mouth -->
  <line x1="10.5" y1="11.5" x2="13.5" y2="11.5" stroke="currentColor" stroke-width="1" stroke-linecap="round"/>
</svg>