<?xml version="1.0" encoding="UTF-8"?>
<svg width="28px" height="24.7932873px" viewBox="0 0 28 24.7932873" version="1.1" xmlns="http://www.w3.org/2000/svg" xmlns:xlink="http://www.w3.org/1999/xlink">
    <title>编组 2</title>
    <g id="页面-1" stroke="none" stroke-width="1" fill="none" fill-rule="evenodd">
        <g id="画板" transform="translate(-19.000000, -47.000000)">
            <g id="编组-2" transform="translate(21.000000, 49.000000)">
                <path d="M22,-1 C22.8284271,-1 23.5784271,-0.664213562 24.1213203,-0.121320344 C24.6642136,0.421572875 25,1.17157288 25,2 L25,15 C25,15.8284271 24.6642136,16.5784271 24.1213203,17.1213203 C23.5784271,17.6642136 22.8284271,18 22,18 L11.7830422,18 L4.19483139,22.6696682 L4.64820814,18 L2,18 C1.17157288,18 0.421572875,17.6642136 -0.121320344,17.1213203 C-0.664213562,16.5784271 -1,15.8284271 -1,15 L-1,2 C-1,1.17157288 -0.664213562,0.421572875 -0.121320344,-0.121320344 C0.421572875,-0.664213562 1.17157288,-1 2,-1 Z" id="矩形" stroke="#FFFFFF" stroke-width="2" fill="#061A35"></path>
                <rect id="矩形" fill="#FC2B03" x="2" y="2" width="20" height="13" rx="2"></rect>
                <rect id="矩形" fill="#061A35" x="7" y="6" width="10" height="7" rx="1"></rect>
                <circle id="椭圆形" fill="#FFFFFF" fill-rule="nonzero" cx="10" cy="9" r="1"></circle>
                <circle id="椭圆形" fill="#FFFFFF" fill-rule="nonzero" cx="14" cy="9" r="1"></circle>
                <path d="M6,12 L6,7 C4.61928813,7 3.5,8.11928813 3.5,9.5 C3.5,10.8807119 4.61928813,12 6,12 Z" id="椭圆形" fill="#061A35"></path>
                <path d="M20.5,12 L20.5,7 C19.1192881,7 18,8.11928813 18,9.5 C18,10.8807119 19.1192881,12 20.5,12 Z" id="椭圆形" fill="#061A35" transform="translate(19.250000, 9.500000) scale(-1, 1) translate(-19.250000, -9.500000) "></path>
                <rect id="矩形" fill="#061A35" x="10.5" y="3" width="3" height="4" rx="1.5"></rect>
            </g>
        </g>
    </g>
</svg>