<?xml version="1.0" encoding="UTF-8"?>
<svg width="48px" height="48px" viewBox="0 0 48 48" version="1.1" xmlns="http://www.w3.org/2000/svg" xmlns:xlink="http://www.w3.org/1999/xlink">
    <title>2</title>
    <g id="2" stroke="none" stroke-width="1" fill="none" fill-rule="evenodd">
        <circle id="椭圆形" fill="#D0D0D0" cx="24" cy="24" r="18"></circle>
        <path d="M24,10 C31.7319865,10 38,16.2680135 38,24 C38,31.7319865 31.7319865,38 24,38 C16.2680135,38 10,31.7319865 10,24 C10,16.2680135 16.2680135,10 24,10 Z" id="矩形" fill="#FFFFFF"></path>
        <path d="M24,12 C30.627417,12 36,17.372583 36,24 C36,30.627417 30.627417,36 24,36 C17.372583,36 12,30.627417 12,24 C12,17.372583 17.372583,12 24,12 Z" id="矩形" fill="#061A35"></path>
        <path d="M24,14 C29.5228475,14 34,18.4771525 34,24 C34,29.5228475 29.5228475,34 24,34 C18.4771525,34 14,29.5228475 14,24 C14,18.4771525 18.4771525,14 24,14 Z" id="矩形" fill="#FFBA06"></path>
        <g id="编组" transform="translate(16.000000, 18.000000)">
            <rect id="矩形" fill="#061A35" x="1" y="0" width="14" height="12" rx="1"></rect>
            <path d="M8,2 L8,8 M8,8 L6,5.6 M8,8 L10,5.6" id="形状" stroke="#FFFFFF" stroke-width="1.5" stroke-linecap="round" stroke-linejoin="round"></path>
            <line x1="5" y1="9.5" x2="11" y2="9.5" id="路径" stroke="#FFFFFF" stroke-width="1.5" stroke-linecap="round"></line>
            <line x1="0" y1="3.5" x2="3" y2="3.5" id="路径" stroke="#FFBA06" stroke-width="1.5" stroke-linecap="round"></line>
            <line x1="13" y1="3.5" x2="16" y2="3.5" id="路径备份" stroke="#FFBA06" stroke-width="1.5" stroke-linecap="round"></line>
            <line x1="0" y1="6.5" x2="3" y2="6.5" id="路径" stroke="#FFBA06" stroke-width="1.5" stroke-linecap="round"></line>
            <line x1="13" y1="6.5" x2="16" y2="6.5" id="路径备份-2" stroke="#FFBA06" stroke-width="1.5" stroke-linecap="round"></line>
            <line x1="0" y1="9.5" x2="3" y2="9.5" id="路径" stroke="#FFBA06" stroke-width="1.5" stroke-linecap="round"></line>
            <line x1="13" y1="9.5" x2="16" y2="9.5" id="路径备份-3" stroke="#FFBA06" stroke-width="1.5" stroke-linecap="round"></line>
        </g>
    </g>
</svg>