<?xml version="1.0" encoding="UTF-8"?>
<svg width="48px" height="48px" viewBox="0 0 48 48" version="1.1" xmlns="http://www.w3.org/2000/svg" xmlns:xlink="http://www.w3.org/1999/xlink">
    <title>3</title>
    <g id="3" stroke="none" stroke-width="1" fill="none" fill-rule="evenodd">
        <circle id="椭圆形" fill="#D0D0D0" cx="24" cy="24" r="20"></circle>
        <g id="编组" transform="translate(7.000000, 7.000000)">
            <path d="M17,0 C26.3888407,-1.72470207e-15 34,7.61115925 34,17 C34,26.3888407 26.3888407,34 17,34 C7.61115925,34 5.74900688e-16,26.3888407 0,17 C-1.14980138e-15,7.61115925 7.61115925,1.14980138e-15 17,0 Z" id="矩形" fill="#061A35"></path>
            <path d="M16.8333333,2.83333333 L17.1666667,2.83333333 C24.8986532,2.83333333 31.1666667,9.10134684 31.1666667,16.8333333 L31.1666667,17.1666667 C31.1666667,24.8986532 24.8986532,31.1666667 17.1666667,31.1666667 L16.8333333,31.1666667 C9.10134684,31.1666667 2.83333333,24.8986532 2.83333333,17.1666667 L2.83333333,16.8333333 C2.83333333,9.10134684 9.10134684,2.83333333 16.8333333,2.83333333 Z" id="矩形" fill="#01BA75"></path>
            <g id="kuyou-shop-icon备份" transform="translate(8.500000, 8.500000)">
                <path d="M3.42553245,2.83333333 L13.5744675,2.83333333 C14.5658348,2.83333333 15.4075909,3.55957209 15.5528745,4.54023601 L17,14.3083333 L17,14.3083333 C17,15.0124733 16.2388533,15.5833333 15.3,15.5833333 L1.7,15.5833333 C0.761112667,15.5833333 0,15.0124733 0,14.3083333 L1.44712553,4.54023601 C1.59240907,3.55957209 2.43416519,2.83333333 3.42553245,2.83333333 Z" id="路径" fill="#061A35"></path>
                <path d="M5.66666667,4.25 L5.66666667,2.125 C5.66666667,0.951397917 6.93515,0 8.5,0 C10.06485,0 11.3333333,0.951397917 11.3333333,2.125 L11.3333333,4.25" id="路径" stroke="#061A35" stroke-width="1.5" stroke-linecap="round"></path>
                <path d="M6.98214286,7.08333333 L6.98214286,11.3333333 M6.98214286,9.20833333 L10.625,7.08333333 M6.98214286,9.20833333 L10.625,11.3333333" id="形状" stroke="#FFFFFF" stroke-linecap="round" stroke-linejoin="round"></path>
            </g>
        </g>
    </g>
</svg>