<?xml version="1.0" encoding="UTF-8"?>
<svg width="48px" height="48px" viewBox="0 0 48 48" version="1.1" xmlns="http://www.w3.org/2000/svg" xmlns:xlink="http://www.w3.org/1999/xlink">
    <title>1备份 3</title>
    <g id="1备份-3" stroke="none" stroke-width="1" fill="none" fill-rule="evenodd">
        <circle id="椭圆形" fill="#061A35" cx="24" cy="24" r="22"></circle>
        <g id="kuyou-shop-icon备份" transform="translate(11.000000, 12.000000)">
            <path d="M4.3318676,4 L21.6681324,4 C22.6622521,4 23.505469,4.73017003 23.6475891,5.71407847 L26,22 L26,22 C26,23.1045333 24.8358933,24 23.4,24 L2.6,24 C1.16405467,24 0,23.1045333 0,22 L2.35241089,5.71407847 C2.494531,4.73017003 3.33774792,4 4.3318676,4 Z" id="路径" fill="#FFFFFF"></path>
            <path d="M8,7 L8,3.5 C8,1.56700833 10.01465,0 12.5,0 C14.98535,0 17,1.56700833 17,3.5 L17,7" id="路径" stroke="#FFFFFF" stroke-width="2" stroke-linecap="round"></path>
            <path d="M10,11 L10,18 M10,14.5 L16,11 M10,14.5 L16,18" id="形状" stroke="#061A35" stroke-width="3" stroke-linecap="round" stroke-linejoin="round"></path>
        </g>
    </g>
</svg>