<?xml version="1.0" encoding="UTF-8"?>
<svg width="26px" height="22px" viewBox="0 0 26 22" version="1.1" xmlns="http://www.w3.org/2000/svg" xmlns:xlink="http://www.w3.org/1999/xlink">
    <title>编组 3</title>
    <g id="页面-1" stroke="none" stroke-width="1" fill="none" fill-rule="evenodd">
        <g id="画板" transform="translate(-77.000000, -47.000000)">
            <g id="编组-3" transform="translate(79.000000, 49.000000)">
                <g id="编组备份">
                    <rect id="矩形" stroke="#FFFFFF" stroke-width="2" fill="#061A35" x="-1" y="-1" width="24" height="20" rx="2"></rect>
                    <rect id="矩形" fill="#01BA75" x="2" y="2" width="18" height="14" rx="1"></rect>
                </g>
                <g id="kuyou-shop-icon备份" transform="translate(5.000000, 4.000000)">
                    <path d="M2.92553245,2 L9.07446755,2 C10.0658348,2 10.9075909,2.72623875 11.0528745,3.70690268 L12,10.1 L12,10.1 C12,10.59704 11.46272,11 10.8,11 L1.2,11 C0.537256,11 0,10.59704 0,10.1 L0.947125529,3.70690268 C1.09240907,2.72623875 1.93416519,2 2.92553245,2 Z" id="路径" fill="#061A35"></path>
                    <path d="M4,3 L4,1.5 C4,0.671575 4.8954,0 6,0 C7.1046,0 8,0.671575 8,1.5 L8,3" id="路径" stroke="#061A35" stroke-width="1.5" stroke-linecap="round"></path>
                    <path d="M4.92857143,5 L4.92857143,8 M4.92857143,6.5 L7.5,5 M4.92857143,6.5 L7.5,8" id="形状" stroke="#FFFFFF" stroke-linecap="round" stroke-linejoin="round"></path>
                </g>
            </g>
        </g>
    </g>
</svg>