<?xml version="1.0" encoding="UTF-8"?>
<svg width="48px" height="48px" viewBox="0 0 48 48" version="1.1" xmlns="http://www.w3.org/2000/svg" xmlns:xlink="http://www.w3.org/1999/xlink">
    <title>3</title>
    <g id="3" stroke="none" stroke-width="1" fill="none" fill-rule="evenodd">
        <circle id="椭圆形" fill="#D0D0D0" cx="24" cy="24" r="18"></circle>
        <path d="M24,10 C31.7319865,10 38,16.2680135 38,24 C38,31.7319865 31.7319865,38 24,38 C16.2680135,38 10,31.7319865 10,24 C10,16.2680135 16.2680135,10 24,10 Z" id="矩形" fill="#FFFFFF"></path>
        <path d="M24,12 C30.627417,12 36,17.372583 36,24 C36,30.627417 30.627417,36 24,36 C17.372583,36 12,30.627417 12,24 C12,17.372583 17.372583,12 24,12 Z" id="矩形" fill="#061A35"></path>
        <path d="M24,14 C29.5228475,14 34,18.4771525 34,24 C34,29.5228475 29.5228475,34 24,34 C18.4771525,34 14,29.5228475 14,24 C14,18.4771525 18.4771525,14 24,14 Z" id="矩形" fill="#01BA75"></path>
        <g id="kuyou-shop-icon备份" transform="translate(18.000000, 18.000000)">
            <path d="M2.92553245,2 L9.07446755,2 C10.0658348,2 10.9075909,2.72623875 11.0528745,3.70690268 L12,10.1 L12,10.1 C12,10.59704 11.46272,11 10.8,11 L1.2,11 C0.537256,11 0,10.59704 0,10.1 L0.947125529,3.70690268 C1.09240907,2.72623875 1.93416519,2 2.92553245,2 Z" id="路径" fill="#061A35"></path>
            <path d="M4,3 L4,1.5 C4,0.671575 4.8954,0 6,0 C7.1046,0 8,0.671575 8,1.5 L8,3" id="路径" stroke="#061A35" stroke-width="1.5" stroke-linecap="round"></path>
            <path d="M4.92857143,5 L4.92857143,8 M4.92857143,6.5 L7.5,5 M4.92857143,6.5 L7.5,8" id="形状" stroke="#FFFFFF" stroke-linecap="round" stroke-linejoin="round"></path>
        </g>
    </g>
</svg>